<svg width="18" height="18" viewBox="0 0 18 18" fill="none" xmlns="http://www.w3.org/2000/svg">
<path d="M13.1667 2.49998H16.5C16.721 2.49998 16.933 2.58778 17.0893 2.74406C17.2455 2.90034 17.3333 3.1123 17.3333 3.33331V16.6666C17.3333 16.8877 17.2455 17.0996 17.0893 17.2559C16.933 17.4122 16.721 17.5 16.5 17.5H1.5C1.27898 17.5 1.06702 17.4122 0.910742 17.2559C0.754461 17.0996 0.666664 16.8877 0.666664 16.6666V3.33331C0.666664 3.1123 0.754461 2.90034 0.910742 2.74406C1.06702 2.58778 1.27898 2.49998 1.5 2.49998H4.83333V0.833313H6.5V2.49998H11.5V0.833313H13.1667V2.49998ZM2.33333 7.49998V15.8333H15.6667V7.49998H2.33333ZM4 10.8333H8.16666V14.1666H4V10.8333Z" fill="#4B5563"/>
</svg>
