<svg width="20" height="15" viewBox="0 0 20 15" fill="none" xmlns="http://www.w3.org/2000/svg">
<path d="M17.5 0H7.5C6.234 0 4.666 0.807 3.93 1.837L1.32 5.49L0.121002 7.169C2.06381e-06 7.344 -0.000997916 7.661 0.124002 7.833L1.312 9.497L3.931 13.164C4.666 14.193 6.233 15 7.5 15H17.5C18.879 15 20 13.878 20 12.5V2.5C20 1.122 18.879 0 17.5 0ZM15.207 9.793C15.598 10.184 15.598 10.816 15.207 11.207C15.012 11.402 14.756 11.5 14.5 11.5C14.244 11.5 13.988 11.402 13.793 11.207L11.5 8.914L9.207 11.207C9.012 11.402 8.756 11.5 8.5 11.5C8.244 11.5 7.988 11.402 7.793 11.207C7.402 10.816 7.402 10.184 7.793 9.793L10.086 7.5L7.793 5.207C7.402 4.816 7.402 4.184 7.793 3.793C8.184 3.402 8.816 3.402 9.207 3.793L11.5 6.086L13.793 3.793C14.184 3.402 14.816 3.402 15.207 3.793C15.598 4.184 15.598 4.816 15.207 5.207L12.914 7.5L15.207 9.793Z" fill="#4B5563"/>
</svg>
