<svg width="11" height="19" viewBox="0 0 11 19" fill="none" xmlns="http://www.w3.org/2000/svg">
<path d="M4.9185 18.8182V0.636363H6.08327V18.8182H4.9185ZM8.83896 6.09091C8.75373 5.37121 8.40809 4.8125 7.80202 4.41477C7.19596 4.01705 6.45259 3.81818 5.57191 3.81818C4.92797 3.81818 4.36452 3.92235 3.88157 4.13068C3.40335 4.33901 3.0293 4.62547 2.75941 4.99006C2.49426 5.35464 2.36168 5.76894 2.36168 6.23295C2.36168 6.62121 2.45401 6.95502 2.63867 7.23438C2.82807 7.509 3.06954 7.73864 3.3631 7.9233C3.65666 8.10322 3.96443 8.25237 4.2864 8.37074C4.60837 8.48437 4.9043 8.5767 5.17418 8.64773L6.65146 9.04545C7.03024 9.14489 7.45165 9.2822 7.91566 9.45739C8.38441 9.63258 8.83185 9.87169 9.25799 10.1747C9.68886 10.473 10.044 10.8565 10.3233 11.3253C10.6027 11.794 10.7424 12.3693 10.7424 13.0511C10.7424 13.8371 10.5364 14.5473 10.1245 15.1818C9.71727 15.8163 9.12068 16.3205 8.33469 16.6946C7.55344 17.0687 6.60411 17.2557 5.48668 17.2557C4.44502 17.2557 3.54303 17.0876 2.78072 16.7514C2.02314 16.4152 1.42655 15.9465 0.990945 15.3452C0.560073 14.7438 0.316229 14.0455 0.259411 13.25H2.07759C2.12494 13.7992 2.3096 14.2538 2.63157 14.6136C2.95827 14.9687 3.37021 15.2339 3.86737 15.4091C4.36926 15.5795 4.90903 15.6648 5.48668 15.6648C6.15903 15.6648 6.76273 15.5559 7.29776 15.3381C7.8328 15.1155 8.25657 14.8078 8.56907 14.4148C8.88157 14.017 9.03782 13.553 9.03782 13.0227C9.03782 12.5398 8.90288 12.1468 8.63299 11.8438C8.3631 11.5407 8.00799 11.2945 7.56765 11.1051C7.12731 10.9157 6.65146 10.75 6.14009 10.608L4.35032 10.0966C3.21396 9.76989 2.31433 9.3035 1.65146 8.69744C0.988577 8.09138 0.657138 7.2983 0.657138 6.31818C0.657138 5.50379 0.877308 4.79356 1.31765 4.1875C1.76272 3.5767 2.35932 3.10322 3.10742 2.76705C3.86026 2.42614 4.7007 2.25568 5.62873 2.25568C6.56623 2.25568 7.39956 2.42377 8.12873 2.75994C8.8579 3.09138 9.43555 3.54593 9.86168 4.12358C10.2926 4.70123 10.5198 5.35701 10.5435 6.09091H8.83896Z" fill="#4B5563"/>
</svg>
